<?xml version="1.0" standalone="no"?><!DOCTYPE svg PUBLIC "-//W3C//DTD SVG 1.1//EN" "http://www.w3.org/Graphics/SVG/1.1/DTD/svg11.dtd"><svg xmlns:xlink="http://www.w3.org/1999/xlink" version="1.1" class="highcharts-root" style="font-family:&quot;Lucida Grande&quot;, &quot;Lucida Sans Unicode&quot;, Arial, Helvetica, sans-serif;font-size:12px;" xmlns="http://www.w3.org/2000/svg" width="600" height="350" viewBox="0 0 600 350"><desc>Created with Highcharts 7.2.1</desc><defs><clipPath id="highcharts-kbwzkns-145-"><rect x="0" y="0" width="516" height="260" fill="none"></rect></clipPath></defs><rect fill="#ffffff" class="highcharts-background" x="0" y="0" width="600" height="350" rx="0" ry="0"></rect><rect fill="none" class="highcharts-plot-background" x="74" y="10" width="516" height="260"></rect><g class="highcharts-grid highcharts-xaxis-grid" data-z-index="1"><path fill="none" data-z-index="1" class="highcharts-grid-line" d="M 90.5 10 L 90.5 270" opacity="1"></path><path fill="none" data-z-index="1" class="highcharts-grid-line" d="M 183.5 10 L 183.5 270" opacity="1"></path><path fill="none" data-z-index="1" class="highcharts-grid-line" d="M 276.5 10 L 276.5 270" opacity="1"></path><path fill="none" data-z-index="1" class="highcharts-grid-line" d="M 369.5 10 L 369.5 270" opacity="1"></path><path fill="none" data-z-index="1" class="highcharts-grid-line" d="M 462.5 10 L 462.5 270" opacity="1"></path><path fill="none" data-z-index="1" class="highcharts-grid-line" d="M 555.5 10 L 555.5 270" opacity="1"></path></g><g class="highcharts-grid highcharts-yaxis-grid" data-z-index="1"><path fill="none" stroke="#e6e6e6" stroke-width="1" data-z-index="1" class="highcharts-grid-line" d="M 74 270.5 L 590 270.5" opacity="1"></path><path fill="none" stroke="#e6e6e6" stroke-width="1" data-z-index="1" class="highcharts-grid-line" d="M 74 227.5 L 590 227.5" opacity="1"></path><path fill="none" stroke="#e6e6e6" stroke-width="1" data-z-index="1" class="highcharts-grid-line" d="M 74 183.5 L 590 183.5" opacity="1"></path><path fill="none" stroke="#e6e6e6" stroke-width="1" data-z-index="1" class="highcharts-grid-line" d="M 74 140.5 L 590 140.5" opacity="1"></path><path fill="none" stroke="#e6e6e6" stroke-width="1" data-z-index="1" class="highcharts-grid-line" d="M 74 97.5 L 590 97.5" opacity="1"></path><path fill="none" stroke="#e6e6e6" stroke-width="1" data-z-index="1" class="highcharts-grid-line" d="M 74 53.5 L 590 53.5" opacity="1"></path><path fill="none" stroke="#e6e6e6" stroke-width="1" data-z-index="1" class="highcharts-grid-line" d="M 74 9.5 L 590 9.5" opacity="1"></path></g><rect fill="none" class="highcharts-plot-border" data-z-index="1" x="74" y="10" width="516" height="260"></rect><g class="highcharts-axis highcharts-xaxis" data-z-index="2"><path fill="none" class="highcharts-tick" stroke="#ccd6eb" stroke-width="1" d="M 90.5 270 L 90.5 280" opacity="1"></path><path fill="none" class="highcharts-tick" stroke="#ccd6eb" stroke-width="1" d="M 183.5 270 L 183.5 280" opacity="1"></path><path fill="none" class="highcharts-tick" stroke="#ccd6eb" stroke-width="1" d="M 276.5 270 L 276.5 280" opacity="1"></path><path fill="none" class="highcharts-tick" stroke="#ccd6eb" stroke-width="1" d="M 369.5 270 L 369.5 280" opacity="1"></path><path fill="none" class="highcharts-tick" stroke="#ccd6eb" stroke-width="1" d="M 462.5 270 L 462.5 280" opacity="1"></path><path fill="none" class="highcharts-tick" stroke="#ccd6eb" stroke-width="1" d="M 555.5 270 L 555.5 280" opacity="1"></path><path fill="none" class="highcharts-axis-line" stroke="#ccd6eb" stroke-width="1" data-z-index="7" d="M 74 270.5 L 590 270.5"></path></g><g class="highcharts-axis highcharts-yaxis" data-z-index="2"><text x="26.28333282470703" data-z-index="7" text-anchor="middle" transform="translate(0,0) rotate(270 26.28333282470703 140)" class="highcharts-axis-title" style="color:#666666;font-size:12px;fill:#666666;" y="140"><tspan>PCKH-0.5</tspan></text><path fill="none" class="highcharts-axis-line" data-z-index="7" d="M 74 10 L 74 270"></path></g><g class="highcharts-series-group" data-z-index="3"><g data-z-index="1" class="highcharts-series highcharts-series-0 highcharts-scatter-series" transform="translate(74,10) scale(1 1)" clip-path="url(#highcharts-kbwzkns-145-)"></g><g data-z-index="1" class="highcharts-markers highcharts-series-0 highcharts-scatter-series" transform="translate(74,10) scale(1 1)" clip-path="none"><path fill="#ddd" d="M 131 177 A 4 4 0 1 1 131.00399999933333 176.99999800000018 Z" opacity="1" class="highcharts-point"></path><path fill="#ddd" d="M 142 116 A 4 4 0 1 1 142.00399999933333 115.99999800000016 Z" opacity="1" class="highcharts-point"></path><path fill="#ddd" d="M 173 96 A 4 4 0 1 1 173.00399999933333 95.99999800000016 Z" opacity="1" class="highcharts-point"></path><path fill="#ddd" d="M 173 96 A 4 4 0 1 1 173.00399999933333 95.99999800000016 Z" opacity="1" class="highcharts-point"></path><path fill="#ddd" d="M 234 70 A 4 4 0 1 1 234.00399999933333 69.99999800000016 Z" opacity="1" class="highcharts-point"></path><path fill="#ddd" d="M 250 59 A 4 4 0 1 1 250.00399999933333 58.99999800000017 Z" opacity="1" class="highcharts-point"></path><path fill="#ddd" d="M 285 73 A 4 4 0 1 1 285.00399999933336 72.99999800000016 Z" opacity="1" class="highcharts-point"></path><path fill="#ddd" d="M 301 99 A 4 4 0 1 1 301.00399999933336 98.99999800000016 Z" opacity="1" class="highcharts-point"></path><path fill="#ddd" d="M 332 65 A 4 4 0 1 1 332.00399999933336 64.99999800000016 Z" opacity="1" class="highcharts-point"></path><path fill="#ddd" d="M 351 70 A 4 4 0 1 1 351.00399999933336 69.99999800000016 Z" opacity="1" class="highcharts-point"></path><path fill="#ddd" d="M 354 101 A 4 4 0 1 1 354.00399999933336 100.99999800000016 Z" opacity="1" class="highcharts-point"></path><path fill="#ddd" d="M 376 72 A 4 4 0 1 1 376.00399999933336 71.99999800000016 Z" opacity="1" class="highcharts-point"></path><path fill="#ddd" d="M 390 47 A 4 4 0 1 1 390.00399999933336 46.99999800000017 Z" opacity="1" class="highcharts-point"></path><path fill="#ddd" d="M 402 51 A 4 4 0 1 1 402.00399999933336 50.99999800000017 Z" opacity="1" class="highcharts-point"></path><path fill="#ddd" d="M 412 134 A 4 4 0 1 1 412.00399999933336 133.99999800000018 Z" opacity="1" class="highcharts-point"></path><path fill="#ddd" d="M 454 89 A 4 4 0 1 1 454.00399999933336 88.99999800000016 Z" opacity="1" class="highcharts-point"></path><path fill="#ddd" d="M 478 111 A 4 4 0 1 1 478.00399999933336 110.99999800000016 Z" opacity="1" class="highcharts-point"></path><path fill="#ddd" d="M 510 70 A 4 4 0 1 1 510.00399999933336 69.99999800000016 Z" opacity="1" class="highcharts-point"></path><path fill="#ddd" d="M 510 181 A 4 4 0 1 1 510.00399999933336 180.99999800000018 Z" opacity="1" class="highcharts-point"></path></g><g data-z-index="2" class="highcharts-series highcharts-series-1 highcharts-line-series" transform="translate(74,10) scale(1 1)" clip-path="url(#highcharts-kbwzkns-145-)"><path fill="none" d="M 5.0588235294118 225.33333333333334 L 99.004766274905 218.39999999999992 L 117.08108588176 112.32000000000008 L 130.3200805234 71.06666666666658 L 216.62814174487 60.666666666666686 L 233.17688504692 53.733333333333235 L 257.363509873 52 L 317.44817786199 50.266666666666794 L 388.73507208621 41.60000000000011 L 487.00914769531 39.866666666666646" class="highcharts-graph" data-z-index="1" stroke="#21ccc7" stroke-width="2" stroke-linejoin="round" stroke-linecap="round"></path></g><g data-z-index="2" class="highcharts-markers highcharts-series-1 highcharts-line-series" transform="translate(74,10) scale(1 1)" clip-path="none"><path fill="#21ccc7" d="M 5 229 A 4 4 0 1 1 5.0039999993333355 228.99999800000018 Z" opacity="1" class="highcharts-point"></path><path fill="#21ccc7" d="M 99 222 A 4 4 0 1 1 99.00399999933333 221.99999800000018 Z" opacity="1" class="highcharts-point"></path><path fill="#21ccc7" d="M 117 116 A 4 4 0 1 1 117.00399999933333 115.99999800000016 Z" opacity="1" class="highcharts-point"></path><path fill="#21ccc7" d="M 130 75 A 4 4 0 1 1 130.00399999933333 74.99999800000016 Z" opacity="1" class="highcharts-point"></path><path fill="#21ccc7" d="M 216 65 A 4 4 0 1 1 216.00399999933333 64.99999800000016 Z" opacity="1" class="highcharts-point"></path><path fill="#21ccc7" d="M 233 58 A 4 4 0 1 1 233.00399999933333 57.99999800000017 Z" opacity="1" class="highcharts-point"></path><path fill="#21ccc7" d="M 257 56 A 4 4 0 1 1 257.00399999933336 55.99999800000017 Z" opacity="1" class="highcharts-point"></path><path fill="#21ccc7" d="M 317 54 A 4 4 0 1 1 317.00399999933336 53.99999800000017 Z" opacity="1" class="highcharts-point"></path><path fill="#21ccc7" d="M 388 46 A 4 4 0 1 1 388.00399999933336 45.99999800000017 Z" opacity="1" class="highcharts-point"></path><path fill="#21ccc7" d="M 487 44 A 4 4 0 1 1 487.00399999933336 43.99999800000017 Z" opacity="1" class="highcharts-point"></path></g></g><g data-z-index="3" class="highcharts-data-labels highcharts-series-1 highcharts-line-series" transform="translate(74,10) scale(1 1)"><g class="highcharts-label highcharts-data-label highcharts-data-label-color-undefined" data-z-index="1" transform="translate(-5,201)"><text x="5" data-z-index="1" style="font-size:11px;font-weight:normal;color:#4a4a4a;fill:#4a4a4a;" y="16"><tspan x="5" y="16" class="highcharts-text-outline" fill="#FFFFFF" stroke="#FFFFFF" stroke-width="2px" stroke-linejoin="round" style="">Tompson et al.</tspan><tspan x="5" y="16">Tompson et al.</tspan></text></g><g class="highcharts-label highcharts-data-label highcharts-data-label-color-undefined" data-z-index="1" transform="translate(72,194)"><text x="5" data-z-index="1" style="font-size:11px;font-weight:normal;color:#4a4a4a;fill:#4a4a4a;" y="16"><tspan x="5" y="16" class="highcharts-text-outline" fill="#FFFFFF" stroke="#FFFFFF" stroke-width="2px" stroke-linejoin="round" style="">DeepCut</tspan><tspan x="5" y="16">DeepCut</tspan></text></g><g class="highcharts-label highcharts-data-label highcharts-data-label-color-undefined" data-z-index="1" transform="translate(40,88)"><text x="5" data-z-index="1" style="font-size:11px;font-weight:normal;color:#4a4a4a;fill:#4a4a4a;" y="16"><tspan x="5" y="16" class="highcharts-text-outline" fill="#FFFFFF" stroke="#FFFFFF" stroke-width="2px" stroke-linejoin="round" style="">Convolutional Pose Machines</tspan><tspan x="5" y="16">Convolutional Pose Machines</tspan></text></g><g class="highcharts-label highcharts-data-label highcharts-data-label-color-undefined" data-z-index="1" transform="translate(54,47)"><text x="5" data-z-index="1" style="font-size:11px;font-weight:normal;color:#4a4a4a;fill:#4a4a4a;" y="16"><tspan x="5" y="16" class="highcharts-text-outline" fill="#FFFFFF" stroke="#FFFFFF" stroke-width="2px" stroke-linejoin="round" style="">Stacked Hourglass Networks</tspan><tspan x="5" y="16">Stacked Hourglass Networks</tspan></text></g><g class="highcharts-label highcharts-data-label highcharts-data-label-color-undefined" data-z-index="1" transform="translate(153,-9999)" opacity="0"><text x="5" data-z-index="1" style="font-size:11px;font-weight:normal;color:#4a4a4a;fill:#4a4a4a;" y="16"><tspan x="5" y="16" class="highcharts-text-outline" fill="#FFFFFF" stroke="#FFFFFF" stroke-width="2px" stroke-linejoin="round" style="">Multi-Context Attention</tspan><tspan x="5" y="16">Multi-Context Attention</tspan></text></g><g class="highcharts-label highcharts-data-label highcharts-data-label-color-undefined" data-z-index="1" transform="translate(181,30)"><text x="5" data-z-index="1" style="font-size:11px;font-weight:normal;color:#4a4a4a;fill:#4a4a4a;" y="16"><tspan x="5" y="16" class="highcharts-text-outline" fill="#FFFFFF" stroke="#FFFFFF" stroke-width="2px" stroke-linejoin="round" style="">Chen et al. ICCV'17</tspan><tspan x="5" y="16">Chen et al. ICCV'17</tspan></text></g><g class="highcharts-label highcharts-data-label highcharts-data-label-color-undefined" data-z-index="1" transform="translate(168,-9999)" opacity="0"><text x="5" data-z-index="1" style="font-size:11px;font-weight:normal;color:#4a4a4a;fill:#4a4a4a;" y="16"><tspan x="5" y="16" class="highcharts-text-outline" fill="#FFFFFF" stroke="#FFFFFF" stroke-width="2px" stroke-linejoin="round" style="">Pyramid Residual Modules (PRMs)</tspan><tspan x="5" y="16">Pyramid Residual Modules (PRMs)</tspan></text></g><g class="highcharts-label highcharts-data-label highcharts-data-label-color-undefined" data-z-index="1" transform="translate(220,-9999)" opacity="0"><text x="5" data-z-index="1" style="font-size:11px;font-weight:normal;color:#4a4a4a;fill:#4a4a4a;" y="16"><tspan x="5" y="16" class="highcharts-text-outline" fill="#FFFFFF" stroke="#FFFFFF" stroke-width="2px" stroke-linejoin="round" style="">Multi-Scale Structure-Aware Network</tspan><tspan x="5" y="16">Multi-Scale Structure-Aware Network</tspan></text></g><g class="highcharts-label highcharts-data-label highcharts-data-label-color-undefined" data-z-index="1" transform="translate(368,18)"><text x="5" data-z-index="1" style="font-size:11px;font-weight:normal;color:#4a4a4a;fill:#4a4a4a;" y="16"><tspan x="5" y="16" class="highcharts-text-outline" fill="#FFFFFF" stroke="#FFFFFF" stroke-width="2px" stroke-linejoin="round" style="">MSPN</tspan><tspan x="5" y="16">MSPN</tspan></text></g><g class="highcharts-label highcharts-data-label highcharts-data-label-color-undefined" data-z-index="1" transform="translate(461,16)"><text x="5" data-z-index="1" style="font-size:11px;font-weight:normal;color:#4a4a4a;fill:#4a4a4a;" y="16"><tspan x="5" y="16" class="highcharts-text-outline" fill="#FFFFFF" stroke="#FFFFFF" stroke-width="2px" stroke-linejoin="round" style="">UniPose</tspan><tspan x="5" y="16">UniPose</tspan></text></g></g><text x="300" text-anchor="middle" class="highcharts-title" data-z-index="4" style="color:#333333;font-size:18px;fill:#333333;" y="24"></text><text x="300" text-anchor="middle" class="highcharts-subtitle" data-z-index="4" style="color:#666666;fill:#666666;" y="24"></text><text x="10" text-anchor="start" class="highcharts-caption" data-z-index="4" style="color:#666666;fill:#666666;" y="347"></text><g class="highcharts-legend" data-z-index="7" transform="translate(123,305)"><rect fill="#ffffff" class="highcharts-legend-box" rx="0" ry="0" x="0" y="0" width="353" height="30" visibility="visible"></rect><g data-z-index="1"><g><g class="highcharts-legend-item highcharts-scatter-series highcharts-color-undefined highcharts-series-0" data-z-index="1" transform="translate(8,3)"><path fill="none" d="M 0 13 L 16 13" class="highcharts-graph"></path><path fill="#ddd" d="M 8 17 A 4 4 0 1 1 8.003999999333336 16.99999800000017 Z" class="highcharts-point" opacity="1"></path><text x="21" style="color:#414141;cursor:pointer;font-size:14px;font-weight:normal;fill:#414141;" text-anchor="start" data-z-index="2" y="17"><tspan>Other models</tspan></text></g><g class="highcharts-legend-item highcharts-line-series highcharts-color-undefined highcharts-series-1" data-z-index="1" transform="translate(133.8499984741211,3)"><path fill="none" d="M 0 13 L 16 13" class="highcharts-graph" stroke="#21ccc7" stroke-width="2"></path><path fill="#21ccc7" d="M 8 17 A 4 4 0 1 1 8.003999999333336 16.99999800000017 Z" class="highcharts-point" opacity="1"></path><text x="21" y="17" style="color:#414141;cursor:pointer;font-size:14px;font-weight:normal;fill:#414141;" text-anchor="start" data-z-index="2"><tspan>Models with highest PCKh-0.5</tspan></text></g></g></g></g><g class="highcharts-axis-labels highcharts-xaxis-labels" data-z-index="7"><text x="90.770241866248" style="color:#666666;cursor:default;font-size:11px;fill:#666666;" text-anchor="middle" transform="translate(0,0)" y="289" opacity="1">2015</text><text x="183.69780040854" style="color:#666666;cursor:default;font-size:11px;fill:#666666;" text-anchor="middle" transform="translate(0,0)" y="289" opacity="1">2016</text><text x="276.87995500163" style="color:#666666;cursor:default;font-size:11px;fill:#666666;" text-anchor="middle" transform="translate(0,0)" y="289" opacity="1">2017</text><text x="369.80751354392" style="color:#666666;cursor:default;font-size:11px;fill:#666666;" text-anchor="middle" transform="translate(0,0)" y="289" opacity="1">2018</text><text x="462.73507208621" style="color:#666666;cursor:default;font-size:11px;fill:#666666;" text-anchor="middle" transform="translate(0,0)" y="289" opacity="1">2019</text><text x="555.6626306285" style="color:#666666;cursor:default;font-size:11px;fill:#666666;" text-anchor="middle" transform="translate(0,0)" y="289" opacity="1">2020</text></g><g class="highcharts-axis-labels highcharts-yaxis-labels" data-z-index="7"><text x="59" style="color:#666666;cursor:default;font-size:11px;fill:#666666;" text-anchor="end" transform="translate(0,0)" y="274" opacity="1">80</text><text x="59" style="color:#666666;cursor:default;font-size:11px;fill:#666666;" text-anchor="end" transform="translate(0,0)" y="230" opacity="1">82.5</text><text x="59" style="color:#666666;cursor:default;font-size:11px;fill:#666666;" text-anchor="end" transform="translate(0,0)" y="187" opacity="1">85</text><text x="59" style="color:#666666;cursor:default;font-size:11px;fill:#666666;" text-anchor="end" transform="translate(0,0)" y="144" opacity="1">87.5</text><text x="59" style="color:#666666;cursor:default;font-size:11px;fill:#666666;" text-anchor="end" transform="translate(0,0)" y="100" opacity="1">90</text><text x="59" style="color:#666666;cursor:default;font-size:11px;fill:#666666;" text-anchor="end" transform="translate(0,0)" y="57" opacity="1">92.5</text><text x="59" style="color:#666666;cursor:default;font-size:11px;fill:#666666;" text-anchor="end" transform="translate(0,0)" y="14" opacity="1">95</text></g></svg>